<svg width="144" height="34" viewBox="0 0 144 34" fill="none" xmlns="http://www.w3.org/2000/svg">
<path d="M115.707 0.611256C115.875 1.9531 116.134 4.49956 116.485 8.25063C116.485 8.5251 116.698 8.66233 117.125 8.66233C117.552 8.66233 117.765 8.5251 117.765 8.25063C117.765 4.07261 119.687 1.9836 123.529 1.9836C126.32 1.9836 128.942 2.94424 131.397 4.86552C133.852 6.7868 135.781 9.38662 137.184 12.665C138.587 15.9434 139.288 19.542 139.288 23.4608C139.288 25.9615 138.48 27.9971 136.864 29.5677C135.232 31.1382 133.067 31.9235 130.368 31.9235C127.913 31.9235 125.87 31.2984 124.238 30.048C122.591 28.7976 121.158 26.7239 119.938 23.8267C119.816 23.5522 119.565 23.415 119.183 23.415C118.818 23.415 118.635 23.5522 118.635 23.8267C119.183 25.748 119.885 28.4622 120.739 31.9693C124.292 32.9147 127.715 33.3874 131.008 33.3874C134.882 33.3874 138.015 32.259 140.409 30.0023C142.803 27.7303 144 24.7569 144 21.082C144 17.2852 142.971 13.7705 140.912 10.5379C138.854 7.30524 136.04 4.7664 132.472 2.92136C128.889 1.07633 124.963 0.153809 120.693 0.153809C118.894 0.153809 117.232 0.306291 115.707 0.611256Z" fill="black"/>
<path d="M86.7072 24.4214C88.0796 27.3338 89.1851 30.0785 90.0237 32.6554C95.5893 32.4725 99.714 32.381 102.398 32.381C105.325 32.381 109.58 32.4725 115.16 32.6554C115.343 32.6554 115.435 32.5182 115.435 32.2437C115.435 32.0455 115.374 31.8625 115.252 31.6948C115.145 31.5118 115.023 31.4127 114.886 31.3975C113.666 31.2602 112.721 31.0773 112.05 30.8485C111.364 30.6198 110.853 30.3148 110.517 29.9336C110.182 29.5372 109.869 28.7366 109.58 27.532L104.456 6.00914C104.304 5.33821 104.227 4.81977 104.227 4.45381C104.227 3.75239 104.532 3.23395 105.142 2.89849C105.737 2.56303 106.789 2.30381 108.299 2.12083C108.451 2.12083 108.527 1.99885 108.527 1.75487C108.527 1.5414 108.474 1.33555 108.367 1.13732C108.245 0.939093 108.116 0.839979 107.979 0.839979C106.926 0.839979 105.63 0.885724 104.09 0.977214C102.779 1.0687 101.742 1.11445 100.98 1.11445C100.217 1.11445 99.1727 1.0687 97.8461 0.977214C96.3822 0.885724 95.17 0.839979 94.2094 0.839979C94.0569 0.839979 93.9806 0.992461 93.9806 1.29743C93.9806 1.49565 94.0416 1.68626 94.1636 1.86923C94.2703 2.03697 94.3923 2.12083 94.5296 2.12083C95.7494 2.25807 96.6948 2.44867 97.3657 2.69264C98.0367 2.92136 98.5399 3.22633 98.8753 3.60754C99.2108 3.98874 99.5157 4.78928 99.7902 6.00914L104.914 27.532C105.097 28.3249 105.188 28.8434 105.188 29.0874C105.188 30.3072 104.471 30.9171 103.038 30.9171H97.503C95.5969 30.9171 93.8205 30.3148 92.1737 29.1102C90.5269 27.9056 89.1317 26.2054 87.9881 24.0097C87.8813 23.8267 87.6907 23.7352 87.4163 23.7352C86.9283 23.7352 86.6843 23.9106 86.6843 24.2613L86.7072 24.4214Z" fill="black"/>
<path d="M52.6374 31.7863C52.6374 32.3657 52.8051 32.6554 53.1406 32.6554C54.1775 32.6554 55.3668 32.6097 56.7087 32.5182C57.898 32.4267 58.9044 32.381 59.7278 32.381C60.658 32.381 61.855 32.4267 63.3188 32.5182C64.8589 32.6097 66.1397 32.6554 67.1613 32.6554C67.3138 32.6554 67.3901 32.5182 67.3901 32.2437C67.3901 31.7101 67.2071 31.428 66.8411 31.3975C65.0571 31.2907 63.822 30.9858 63.1358 30.4826C62.4496 29.9641 62.0456 28.9501 61.9236 27.4405L61.1917 19.8927H69.9975L75.6241 26.9831C76.539 28.1877 76.9965 29.1331 76.9965 29.8193C76.9965 30.7647 76.0968 31.2831 74.2975 31.3746C74.145 31.3746 74.0688 31.5118 74.0688 31.7863C74.0688 32.015 74.1222 32.2132 74.2289 32.381C74.3356 32.564 74.4653 32.6554 74.6177 32.6554C75.5174 32.6554 76.5009 32.6097 77.5683 32.5182C78.5899 32.4267 79.5124 32.381 80.3358 32.381C80.9915 32.381 81.9598 32.4267 83.2406 32.5182C84.5672 32.6097 85.5965 32.6554 86.3284 32.6554C86.4809 32.6554 86.5571 32.5182 86.5571 32.2437C86.5571 31.7101 86.3894 31.428 86.0539 31.3975C84.4376 31.245 83.0195 30.8333 81.7997 30.1624C80.5798 29.4762 79.3142 28.3554 78.0028 26.8001L56.1597 0.519767C55.9615 0.275795 55.7175 0.153809 55.4278 0.153809C55.0619 0.153809 54.8789 0.306291 54.8789 0.611256L57.1661 27.1203C57.1814 27.4405 57.189 27.7379 57.189 28.0124C57.189 29.1102 56.9145 29.8955 56.3656 30.3682C55.8014 30.8409 54.6349 31.184 52.8661 31.3975C52.7136 31.4127 52.6374 31.5423 52.6374 31.7863ZM60.048 7.38148L68.8539 18.4288H61.0544L60.048 7.38148Z" fill="black"/>
<path d="M25.4218 0.977214C25.5438 3.46268 25.6048 5.41445 25.6048 6.83254V8.06765C25.6048 8.31162 25.8182 8.43361 26.2452 8.43361C26.6264 8.43361 26.8322 8.31162 26.8627 8.06765C27.061 5.78041 27.6099 4.1336 28.5096 3.12722C29.3939 2.12083 30.7358 1.61764 32.5351 1.61764C35.6762 1.61764 37.2468 3.32544 37.2468 6.74105C37.2468 7.93041 36.9571 9.08928 36.3776 10.2177C35.783 11.3308 34.5174 12.848 32.5808 14.7693C30.4461 16.8735 29.0509 18.5889 28.3952 19.9155C27.7243 21.2421 27.3888 22.6373 27.3888 24.1012C27.3888 26.8306 28.4028 29.0645 30.4308 30.8028C32.4588 32.5258 35.051 33.3874 38.2074 33.3874C39.5493 33.3874 41.1351 33.1358 42.9649 32.6326C44.627 32.1904 45.9993 31.9693 47.0819 31.9693C46.8074 28.264 46.655 25.6717 46.6245 24.1927C46.6245 23.9487 46.3805 23.8267 45.8925 23.8267C45.5723 23.8267 45.3894 23.9487 45.3436 24.1927C44.9167 27.0288 44.139 29.0264 43.0106 30.1852C41.8823 31.3441 40.1592 31.9235 37.8415 31.9235C35.9659 31.9235 34.4869 31.3593 33.4042 30.231C32.3064 29.1026 31.7574 27.5778 31.7574 25.6565C31.7574 24.4976 32.0776 23.354 32.7181 22.2256C33.3585 21.0973 34.708 19.5496 36.7665 17.5826C38.9012 15.5393 40.3041 13.9154 40.975 12.7107C41.6307 11.5061 41.9585 10.2786 41.9585 9.02829C41.9585 6.49708 41.0589 4.3852 39.2596 2.69264C37.445 1.00009 35.112 0.153809 32.2606 0.153809C31.2085 0.153809 30.0115 0.291043 28.6697 0.565511C27.4193 0.83998 26.3367 0.977214 25.4218 0.977214Z" fill="black"/>
<path d="M-0.00050354 0.977214C0.12149 3.46268 0.18248 5.41445 0.18248 6.83254V8.06765C0.18248 8.31162 0.39595 8.43361 0.822906 8.43361C1.20412 8.43361 1.40996 8.31162 1.44046 8.06765C1.63869 5.78041 2.18762 4.1336 3.08727 3.12722C3.97166 2.12083 5.31352 1.61764 7.11281 1.61764C10.254 1.61764 11.8245 3.32544 11.8245 6.74105C11.8245 7.93041 11.5348 9.08928 10.9554 10.2177C10.3607 11.3308 9.09508 12.848 7.15855 14.7693C5.0238 16.8735 3.62859 18.5889 2.97292 19.9155C2.30199 21.2421 1.96652 22.6373 1.96652 24.1012C1.96652 26.8306 2.98053 29.0645 5.00854 30.8028C7.03658 32.5258 9.62877 33.3874 12.7852 33.3874C14.127 33.3874 15.7128 33.1358 17.5426 32.6326C19.2047 32.1904 20.577 31.9693 21.6596 31.9693C21.3852 28.264 21.2327 25.6717 21.2022 24.1927C21.2022 23.9487 20.9582 23.8267 20.4703 23.8267C20.1501 23.8267 19.9671 23.9487 19.9213 24.1927C19.4944 27.0288 18.7167 29.0264 17.5884 30.1852C16.46 31.3441 14.7369 31.9235 12.4192 31.9235C10.5437 31.9235 9.06459 31.3593 7.98196 30.231C6.88409 29.1026 6.33514 27.5778 6.33514 25.6565C6.33514 24.4976 6.65536 23.354 7.29579 22.2256C7.93622 21.0973 9.28569 19.5496 11.3442 17.5826C13.479 15.5393 14.8818 13.9154 15.5527 12.7107C16.2084 11.5061 16.5362 10.2786 16.5362 9.02829C16.5362 6.49708 15.6366 4.3852 13.8373 2.69264C12.0228 1.00009 9.68976 0.153809 6.83835 0.153809C5.78621 0.153809 4.58923 0.291043 3.24738 0.565511C1.99702 0.83998 0.914398 0.977214 -0.00050354 0.977214Z" fill="black"/>
</svg>
